<svg width="200" height="56" viewBox="0 0 200 56" fill="none" xmlns="http://www.w3.org/2000/svg">
<path fill-rule="evenodd" clip-rule="evenodd" d="M26.9958 50.109L32.7714 28.4091L38.6547 53.3136C38.9974 54.764 40.3244 55.7919 41.8543 55.7919H52.1666C53.6997 55.7919 55.0287 54.7597 55.3681 53.3054L66.8497 4.10868C67.316 2.11045 65.7546 0.208076 63.6482 0.208076H54.7512C53.2014 0.208076 51.8627 1.26234 51.5401 2.73688L45.1122 32.1181L39.7594 8.62199C39.4263 7.15995 38.0936 6.11941 36.5542 6.11941H29.9798C28.4797 6.11941 27.1704 7.10848 26.799 8.52227L20.4749 32.5959L15.4001 14.2901C15.0137 12.8963 13.7143 11.928 12.2304 11.928H3.51725C1.29389 11.928 -0.28646 14.0327 0.38988 16.0931L11.6124 50.28C12.0469 51.6036 13.3114 52.5021 14.7398 52.5021H23.8177C25.3139 52.5021 26.6208 51.518 26.9958 50.109Z" fill="url(#paint0_linear_537_872)"/>
<path d="M118.587 14.1166L111.21 44.076H101.64L98.7713 31.0226C98.7167 30.7767 98.6279 30.36 98.5049 29.7726C98.3956 29.1851 98.2658 28.5157 98.1156 27.7643C97.9789 27.013 97.8492 26.2753 97.7262 25.5512C97.6169 24.8135 97.5349 24.1919 97.4803 23.6864C97.4257 24.1919 97.3369 24.8135 97.2139 25.5512C97.091 26.2753 96.9543 27.013 96.8041 27.7643C96.6674 28.5157 96.5308 29.1851 96.3942 29.7726C96.2713 30.36 96.1825 30.7767 96.1278 31.0226L93.2384 44.076H83.6686L76.2505 14.1166H84.058L87.3162 29.1373C87.3982 29.5062 87.5075 30.0321 87.6441 30.7152C87.7944 31.3846 87.9446 32.1223 88.0949 32.9284C88.2589 33.7207 88.4091 34.4858 88.5457 35.2235C88.6824 35.9612 88.778 36.5759 88.8326 37.0678C88.9419 36.2207 89.0854 35.2576 89.263 34.1784C89.4542 33.0991 89.6592 32.0062 89.8777 30.8996C90.11 29.7794 90.3286 28.7411 90.5335 27.7848C90.7384 26.8285 90.916 26.0498 91.0663 25.4487L93.7098 14.1166H101.21L103.771 25.4487C103.908 26.0362 104.079 26.8149 104.284 27.7848C104.502 28.7411 104.721 29.7794 104.939 30.8996C105.172 32.0199 105.383 33.1264 105.575 34.2194C105.766 35.2986 105.909 36.2481 106.005 37.0678C106.087 36.3847 106.224 35.524 106.415 34.4858C106.606 33.4338 106.797 32.416 106.989 31.4324C107.194 30.4351 107.351 29.6838 107.46 29.1783L110.78 14.1166H118.587Z" fill="black"/>
<path d="M130.042 20.8585V44.076H122.03V20.8585H130.042ZM126.067 11.5141C127.214 11.5141 128.212 11.7532 129.059 12.2313C129.919 12.7095 130.35 13.659 130.35 15.0797C130.35 16.4595 129.919 17.3953 129.059 17.8872C128.212 18.3653 127.214 18.6044 126.067 18.6044C124.892 18.6044 123.888 18.3653 123.054 17.8872C122.235 17.3953 121.825 16.4595 121.825 15.0797C121.825 13.659 122.235 12.7095 123.054 12.2313C123.888 11.7532 124.892 11.5141 126.067 11.5141Z" fill="black"/>
<path d="M150.165 20.4487C152.556 20.4487 154.51 21.1249 156.026 22.4774C157.543 23.8299 158.301 25.9952 158.301 28.9734V44.076H150.288V31.4119C150.288 29.8682 150.063 28.707 149.612 27.9283C149.175 27.1359 148.465 26.7397 147.481 26.7397C145.965 26.7397 144.947 27.3613 144.428 28.6045C143.909 29.834 143.649 31.6032 143.649 33.912V44.076H135.637V20.8585H141.682L142.768 23.9323H143.075C143.567 23.1946 144.154 22.5662 144.838 22.0471C145.521 21.5279 146.306 21.1317 147.194 20.8585C148.082 20.5853 149.073 20.4487 150.165 20.4487Z" fill="black"/>
<path d="M170.965 44.4859C168.574 44.4859 166.607 43.4681 165.063 41.4326C163.519 39.397 162.748 36.4188 162.748 32.498C162.748 28.5362 163.54 25.5375 165.125 23.502C166.709 21.4664 168.759 20.4487 171.272 20.4487C172.311 20.4487 173.205 20.5989 173.957 20.8995C174.708 21.2 175.357 21.6099 175.904 22.129C176.464 22.6345 176.949 23.2083 177.358 23.8504H177.522C177.427 23.2629 177.338 22.4569 177.256 21.4323C177.174 20.394 177.133 19.3831 177.133 18.3995V12.1904H185.207V44.076H179.162L177.44 41.1457H177.133C176.764 41.7604 176.3 42.3206 175.74 42.826C175.193 43.3315 174.524 43.7345 173.731 44.0351C172.953 44.3356 172.031 44.4859 170.965 44.4859ZM174.244 38.1538C175.528 38.1538 176.43 37.7508 176.949 36.9448C177.481 36.1251 177.768 34.8819 177.809 33.2152V32.58C177.809 30.7494 177.55 29.3491 177.031 28.3791C176.525 27.3955 175.569 26.9037 174.162 26.9037C173.205 26.9037 172.413 27.3682 171.785 28.2971C171.156 29.2261 170.842 30.6674 170.842 32.621C170.842 34.5472 171.156 35.9544 171.785 36.8423C172.427 37.7167 173.246 38.1538 174.244 38.1538Z" fill="black"/>
<path d="M198.814 20.8585V44.076H190.801V20.8585H198.814ZM194.838 11.5141C195.986 11.5141 196.983 11.7532 197.83 12.2313C198.691 12.7095 199.121 13.659 199.121 15.0797C199.121 16.4595 198.691 17.3953 197.83 17.8872C196.983 18.3653 195.986 18.6044 194.838 18.6044C193.663 18.6044 192.659 18.3653 191.826 17.8872C191.006 17.3953 190.596 16.4595 190.596 15.0797C190.596 13.659 191.006 12.7095 191.826 12.2313C192.659 11.7532 193.663 11.5141 194.838 11.5141Z" fill="black"/>
<defs>
<linearGradient id="paint0_linear_537_872" x1="64.7092" y1="49.3071" x2="-10.4841" y2="-16.6316" gradientUnits="userSpaceOnUse">
<stop offset="0.00774135" stop-color="#449AFF"/>
<stop offset="1" stop-color="#7000FF"/>
</linearGradient>
</defs>
</svg>
